# MagicaVoxel @ ephtracy

# material
mtllib Green Laser Left.mtl
usemtl palette

# normals
vn -1 0 0
vn 1 0 0
vn 0 0 1
vn 0 0 -1
vn 0 -1 0
vn 0 1 0

# texcoords
vt 0.869141 0.5
vt 0.884766 0.5
vt 0.888672 0.5
vt 0.896484 0.5
vt 0.900391 0.5
vt 0.904297 0.5
vt 0.962891 0.5
vt 0.986328 0.5
vt 0.990234 0.5

# verts
v -4.5 0 2
v -4.5 0 -2
v -4.5 1 2
v -4.5 1 -2
v -4.5 2 2
v -4.5 2 -2
v -4.5 3 2
v -4.5 3 1
v -4.5 3 -1
v -4.5 3 -2
v -4.5 4 1
v -4.5 4 -1
v -4.5 5 1
v -4.5 5 -1
v -3.5 3 2
v -3.5 3 1
v -3.5 3 -1
v -3.5 3 -2
v -3.5 4 2
v -3.5 4 1
v -3.5 4 -1
v -3.5 4 -2
v -2.5 5 1
v -2.5 5 -1
v -2.5 6 1
v -2.5 6 -1
v -1.5 3 2
v -1.5 3 1
v -1.5 3 -1
v -1.5 3 -2
v -1.5 4 2
v -1.5 4 1
v -1.5 4 -1
v -1.5 4 -2
v -0.5 5 1
v -0.5 5 -0
v -0.5 5 -1
v -0.5 6 1
v -0.5 6 -1
v 0.5 2 2
v 0.5 2 1
v 0.5 2 -1
v 0.5 2 -2
v 0.5 3 2
v 0.5 3 1
v 0.5 3 -1
v 0.5 3 -2
v 1.5 0 2
v 1.5 0 -2
v 1.5 1 2
v 1.5 1 1
v 1.5 1 -0
v 1.5 1 -1
v 1.5 1 -2
v 1.5 2 2
v 1.5 2 1
v 1.5 2 -1
v 1.5 2 -2
v 3.5 4 1
v 3.5 4 -0
v 3.5 4 -1
v 3.5 5 1
v 3.5 5 -0
v 3.5 5 -1
v 4.5 1 1
v 4.5 1 -1
v 4.5 3 1
v 4.5 3 -1
v 4.5 4 1
v 4.5 4 -1
v -4.5 0 2
v -4.5 1 2
v -4.5 2 2
v -4.5 3 2
v -3.5 3 2
v -3.5 4 2
v -1.5 3 2
v -1.5 4 2
v 0.5 2 2
v 0.5 3 2
v 1.5 0 2
v 1.5 1 2
v 1.5 2 2
v -4.5 3 1
v -4.5 4 1
v -4.5 5 1
v -3.5 3 1
v -3.5 4 1
v -2.5 5 1
v -2.5 6 1
v -1.5 3 1
v -1.5 4 1
v -0.5 5 1
v -0.5 6 1
v 0.5 2 1
v 0.5 3 1
v 0.5 4 1
v 0.5 5 1
v 1.5 1 1
v 1.5 2 1
v 1.5 4 1
v 1.5 5 1
v 2.5 1 1
v 2.5 2 1
v 2.5 3 1
v 2.5 4 1
v 2.5 5 1
v 3.5 1 1
v 3.5 3 1
v 3.5 4 1
v 3.5 5 1
v 4.5 1 1
v 4.5 3 1
v 4.5 4 1
v -4.5 3 -1
v -4.5 4 -1
v -4.5 5 -1
v -3.5 3 -1
v -3.5 4 -1
v -2.5 5 -1
v -2.5 6 -1
v -1.5 3 -1
v -1.5 4 -1
v -0.5 4 -1
v -0.5 5 -1
v -0.5 6 -1
v 0.5 2 -1
v 0.5 3 -1
v 0.5 4 -1
v 0.5 5 -1
v 1.5 1 -1
v 1.5 2 -1
v 1.5 4 -1
v 1.5 5 -1
v 2.5 1 -1
v 2.5 3 -1
v 2.5 4 -1
v 2.5 5 -1
v 3.5 1 -1
v 3.5 3 -1
v 3.5 4 -1
v 3.5 5 -1
v 4.5 1 -1
v 4.5 3 -1
v 4.5 4 -1
v -4.5 0 -2
v -4.5 1 -2
v -4.5 2 -2
v -4.5 3 -2
v -3.5 3 -2
v -3.5 4 -2
v -1.5 3 -2
v -1.5 4 -2
v 0.5 2 -2
v 0.5 3 -2
v 1.5 0 -2
v 1.5 1 -2
v 1.5 2 -2
v -4.5 0 2
v 1.5 0 2
v -3.5 0 1
v 0.5 0 1
v -3.5 0 -1
v 0.5 0 -1
v -4.5 0 -2
v 1.5 0 -2
v 1.5 1 1
v 2.5 1 1
v 3.5 1 1
v 4.5 1 1
v 1.5 1 -0
v 2.5 1 -0
v 1.5 1 -1
v 2.5 1 -1
v 3.5 1 -1
v 4.5 1 -1
v 0.5 2 2
v 1.5 2 2
v 0.5 2 1
v 1.5 2 1
v 0.5 2 -1
v 1.5 2 -1
v 0.5 2 -2
v 1.5 2 -2
v -4.5 3 2
v -3.5 3 2
v -1.5 3 2
v 0.5 3 2
v -4.5 3 1
v -3.5 3 1
v -1.5 3 1
v 0.5 3 1
v -4.5 3 -1
v -3.5 3 -1
v -1.5 3 -1
v 0.5 3 -1
v -4.5 3 -2
v -3.5 3 -2
v -1.5 3 -2
v 0.5 3 -2
v -3.5 4 2
v -1.5 4 2
v -3.5 4 1
v -1.5 4 1
v 3.5 4 1
v 4.5 4 1
v 3.5 4 -0
v -3.5 4 -1
v -1.5 4 -1
v 3.5 4 -1
v 4.5 4 -1
v -3.5 4 -2
v -1.5 4 -2
v -4.5 5 1
v -2.5 5 1
v -0.5 5 1
v 0.5 5 1
v 1.5 5 1
v 2.5 5 1
v 3.5 5 1
v -0.5 5 -0
v 0.5 5 -0
v 1.5 5 -0
v 2.5 5 -0
v 3.5 5 -0
v -4.5 5 -1
v -2.5 5 -1
v -0.5 5 -1
v 0.5 5 -1
v 1.5 5 -1
v 2.5 5 -1
v 3.5 5 -1
v -2.5 6 1
v -0.5 6 1
v -2.5 6 -1
v -0.5 6 -1

# faces
f 3/6/1 2/6/1 1/6/1
f 4/6/1 2/6/1 3/6/1
f 5/5/1 4/5/1 3/5/1
f 6/5/1 4/5/1 5/5/1
f 7/4/1 6/4/1 5/4/1
f 8/4/1 6/4/1 7/4/1
f 9/4/1 6/4/1 8/4/1
f 10/4/1 6/4/1 9/4/1
f 11/4/1 9/4/1 8/4/1
f 12/4/1 9/4/1 11/4/1
f 13/8/1 12/8/1 11/8/1
f 14/8/1 12/8/1 13/8/1
f 19/3/1 16/3/1 15/3/1
f 20/3/1 16/3/1 19/3/1
f 21/3/1 18/3/1 17/3/1
f 22/3/1 18/3/1 21/3/1
f 25/9/1 24/9/1 23/9/1
f 26/9/1 24/9/1 25/9/1
f 27/3/2 28/3/2 31/3/2
f 31/3/2 28/3/2 32/3/2
f 29/3/2 30/3/2 33/3/2
f 33/3/2 30/3/2 34/3/2
f 35/9/2 36/9/2 38/9/2
f 36/9/2 37/9/2 38/9/2
f 38/9/2 37/9/2 39/9/2
f 40/4/2 41/4/2 44/4/2
f 44/4/2 41/4/2 45/4/2
f 42/4/2 43/4/2 46/4/2
f 46/4/2 43/4/2 47/4/2
f 48/6/2 49/6/2 50/6/2
f 50/6/2 49/6/2 51/6/2
f 51/6/2 49/6/2 52/6/2
f 52/6/2 49/6/2 53/6/2
f 53/6/2 49/6/2 54/6/2
f 50/5/2 51/5/2 55/5/2
f 55/5/2 51/5/2 56/5/2
f 53/5/2 54/5/2 57/5/2
f 57/5/2 54/5/2 58/5/2
f 59/2/2 60/2/2 62/2/2
f 60/8/2 61/8/2 63/8/2
f 62/2/2 60/2/2 63/2/2
f 63/8/2 61/8/2 64/8/2
f 65/5/2 66/5/2 67/5/2
f 67/5/2 66/5/2 68/5/2
f 67/8/2 68/8/2 69/8/2
f 69/8/2 68/8/2 70/8/2
f 75/4/3 74/4/3 73/4/3
f 77/4/3 75/4/3 73/4/3
f 77/3/3 76/3/3 75/3/3
f 78/3/3 76/3/3 77/3/3
f 79/5/3 73/5/3 72/5/3
f 79/4/3 77/4/3 73/4/3
f 80/4/3 77/4/3 79/4/3
f 81/6/3 72/6/3 71/6/3
f 82/5/3 79/5/3 72/5/3
f 82/6/3 72/6/3 81/6/3
f 83/5/3 79/5/3 82/5/3
f 87/4/3 85/4/3 84/4/3
f 88/8/3 86/8/3 85/8/3
f 88/4/3 85/4/3 87/4/3
f 89/8/3 86/8/3 88/8/3
f 92/8/3 89/8/3 88/8/3
f 93/9/3 90/9/3 89/9/3
f 93/8/3 92/8/3 91/8/3
f 93/8/3 89/8/3 92/8/3
f 94/9/3 90/9/3 93/9/3
f 96/8/3 93/8/3 91/8/3
f 97/8/3 93/8/3 96/8/3
f 98/8/3 93/8/3 97/8/3
f 100/5/3 96/5/3 95/5/3
f 101/8/3 97/8/3 96/8/3
f 101/2/3 98/2/3 97/2/3
f 102/2/3 98/2/3 101/2/3
f 103/6/3 100/6/3 99/6/3
f 104/5/3 96/5/3 100/5/3
f 104/6/3 100/6/3 103/6/3
f 105/8/3 101/8/3 96/8/3
f 105/5/3 96/5/3 104/5/3
f 105/8/3 102/8/3 101/8/3
f 106/8/3 102/8/3 105/8/3
f 107/8/3 102/8/3 106/8/3
f 108/7/3 104/7/3 103/7/3
f 108/7/3 105/7/3 104/7/3
f 109/8/3 106/8/3 105/8/3
f 109/7/3 105/7/3 108/7/3
f 110/2/3 107/2/3 106/2/3
f 110/8/3 106/8/3 109/8/3
f 111/2/3 107/2/3 110/2/3
f 112/5/3 109/5/3 108/5/3
f 113/8/3 110/8/3 109/8/3
f 113/5/3 109/5/3 112/5/3
f 114/8/3 110/8/3 113/8/3
f 115/4/4 116/4/4 118/4/4
f 116/8/4 117/8/4 119/8/4
f 118/4/4 116/4/4 119/4/4
f 119/8/4 117/8/4 120/8/4
f 119/8/4 120/8/4 123/8/4
f 123/8/4 120/8/4 124/8/4
f 122/8/4 123/8/4 124/8/4
f 120/9/4 121/9/4 125/9/4
f 124/8/4 120/8/4 125/8/4
f 125/9/4 121/9/4 126/9/4
f 122/8/4 124/8/4 128/8/4
f 124/2/4 125/2/4 129/2/4
f 128/8/4 124/8/4 129/8/4
f 129/2/4 125/2/4 130/2/4
f 127/5/4 128/5/4 132/5/4
f 128/8/4 129/8/4 133/8/4
f 129/8/4 130/8/4 133/8/4
f 133/8/4 130/8/4 134/8/4
f 131/5/4 132/5/4 135/5/4
f 132/5/4 128/5/4 136/5/4
f 135/5/4 132/5/4 136/5/4
f 128/8/4 133/8/4 136/8/4
f 133/2/4 134/2/4 137/2/4
f 136/8/4 133/8/4 137/8/4
f 137/2/4 134/2/4 138/2/4
f 135/7/4 136/7/4 139/7/4
f 136/8/4 137/8/4 140/8/4
f 139/7/4 136/7/4 140/7/4
f 137/8/4 138/8/4 140/8/4
f 140/8/4 138/8/4 141/8/4
f 141/8/4 138/8/4 142/8/4
f 139/5/4 140/5/4 143/5/4
f 140/8/4 141/8/4 144/8/4
f 143/5/4 140/5/4 144/5/4
f 144/8/4 141/8/4 145/8/4
f 148/4/4 149/4/4 150/4/4
f 148/4/4 150/4/4 152/4/4
f 150/3/4 151/3/4 152/3/4
f 152/3/4 151/3/4 153/3/4
f 147/5/4 148/5/4 154/5/4
f 148/4/4 152/4/4 154/4/4
f 154/4/4 152/4/4 155/4/4
f 146/6/4 147/6/4 156/6/4
f 147/5/4 154/5/4 157/5/4
f 156/6/4 147/6/4 157/6/4
f 157/5/4 154/5/4 158/5/4
f 161/6/5 160/6/5 159/6/5
f 162/6/5 160/6/5 161/6/5
f 163/6/5 161/6/5 159/6/5
f 163/1/5 162/1/5 161/1/5
f 164/6/5 160/6/5 162/6/5
f 164/1/5 162/1/5 163/1/5
f 165/6/5 163/6/5 159/6/5
f 165/6/5 164/6/5 163/6/5
f 166/6/5 160/6/5 164/6/5
f 166/6/5 164/6/5 165/6/5
f 171/6/5 168/6/5 167/6/5
f 172/7/5 169/7/5 168/7/5
f 172/6/5 168/6/5 171/6/5
f 173/5/5 172/5/5 171/5/5
f 174/7/5 169/7/5 172/7/5
f 174/5/5 172/5/5 173/5/5
f 175/5/5 170/5/5 169/5/5
f 175/7/5 169/7/5 174/7/5
f 176/5/5 170/5/5 175/5/5
f 177/5/6 178/5/6 179/5/6
f 179/5/6 178/5/6 180/5/6
f 181/5/6 182/5/6 183/5/6
f 183/5/6 182/5/6 184/5/6
f 185/4/6 186/4/6 189/4/6
f 189/4/6 186/4/6 190/4/6
f 187/4/6 188/4/6 191/4/6
f 191/4/6 188/4/6 192/4/6
f 193/4/6 194/4/6 197/4/6
f 197/4/6 194/4/6 198/4/6
f 195/4/6 196/4/6 199/4/6
f 199/4/6 196/4/6 200/4/6
f 201/3/6 202/3/6 203/3/6
f 203/3/6 202/3/6 204/3/6
f 205/8/6 206/8/6 207/8/6
f 207/8/6 206/8/6 210/8/6
f 210/8/6 206/8/6 211/8/6
f 208/3/6 209/3/6 212/3/6
f 212/3/6 209/3/6 213/3/6
f 216/8/6 217/8/6 221/8/6
f 217/2/6 218/2/6 222/2/6
f 221/8/6 217/8/6 222/8/6
f 218/8/6 219/8/6 223/8/6
f 222/2/6 218/2/6 223/2/6
f 219/2/6 220/2/6 224/2/6
f 223/8/6 219/8/6 224/8/6
f 224/2/6 220/2/6 225/2/6
f 214/8/6 215/8/6 226/8/6
f 226/8/6 215/8/6 227/8/6
f 221/2/6 222/2/6 228/2/6
f 222/8/6 223/8/6 229/8/6
f 228/2/6 222/2/6 229/2/6
f 223/2/6 224/2/6 230/2/6
f 229/8/6 223/8/6 230/8/6
f 224/8/6 225/8/6 231/8/6
f 230/2/6 224/2/6 231/2/6
f 231/8/6 225/8/6 232/8/6
f 233/9/6 234/9/6 235/9/6
f 235/9/6 234/9/6 236/9/6
