# MagicaVoxel @ ephtracy

# material
mtllib Red Laser Left.mtl
usemtl palette

# normals
vn -1 0 0
vn 1 0 0
vn 0 0 1
vn 0 0 -1
vn 0 -1 0
vn 0 1 0

# texcoords
vt 0.841797 0.5
vt 0.853516 0.5
vt 0.857422 0.5
vt 0.861328 0.5
vt 0.865234 0.5
vt 0.869141 0.5
vt 0.986328 0.5
vt 0.990234 0.5
vt 0.994141 0.5

# verts
v -4.5 0 2
v -4.5 0 -2
v -4.5 1 2
v -4.5 1 -2
v -4.5 2 2
v -4.5 2 -2
v -4.5 3 2
v -4.5 3 1
v -4.5 3 -1
v -4.5 3 -2
v -4.5 4 1
v -4.5 4 -1
v -4.5 5 1
v -4.5 5 -1
v -3.5 3 2
v -3.5 3 1
v -3.5 3 -1
v -3.5 3 -2
v -3.5 4 2
v -3.5 4 1
v -3.5 4 -1
v -3.5 4 -2
v -2.5 5 1
v -2.5 5 -1
v -2.5 6 1
v -2.5 6 -1
v -1.5 3 2
v -1.5 3 1
v -1.5 3 -1
v -1.5 3 -2
v -1.5 4 2
v -1.5 4 1
v -1.5 4 -1
v -1.5 4 -2
v -0.5 5 1
v -0.5 5 -0
v -0.5 5 -1
v -0.5 6 1
v -0.5 6 -1
v 0.5 2 2
v 0.5 2 1
v 0.5 2 -1
v 0.5 2 -2
v 0.5 3 2
v 0.5 3 1
v 0.5 3 -1
v 0.5 3 -2
v 1.5 0 2
v 1.5 0 -2
v 1.5 1 2
v 1.5 1 1
v 1.5 1 -1
v 1.5 1 -2
v 1.5 2 2
v 1.5 2 1
v 1.5 2 -1
v 1.5 2 -2
v 3.5 4 1
v 3.5 4 -0
v 3.5 4 -1
v 3.5 5 1
v 3.5 5 -0
v 3.5 5 -1
v 4.5 1 1
v 4.5 1 -1
v 4.5 2 1
v 4.5 2 -1
v 4.5 3 1
v 4.5 3 -1
v 4.5 4 1
v 4.5 4 -1
v -4.5 0 2
v -4.5 1 2
v -4.5 2 2
v -4.5 3 2
v -3.5 1 2
v -3.5 2 2
v -3.5 3 2
v -3.5 4 2
v -1.5 2 2
v -1.5 3 2
v -1.5 4 2
v 0.5 1 2
v 0.5 2 2
v 0.5 3 2
v 1.5 0 2
v 1.5 1 2
v 1.5 2 2
v -4.5 3 1
v -4.5 4 1
v -4.5 5 1
v -3.5 3 1
v -3.5 4 1
v -2.5 5 1
v -2.5 6 1
v -1.5 3 1
v -1.5 4 1
v -0.5 5 1
v -0.5 6 1
v 0.5 2 1
v 0.5 3 1
v 0.5 4 1
v 0.5 5 1
v 1.5 1 1
v 1.5 2 1
v 1.5 4 1
v 1.5 5 1
v 2.5 1 1
v 2.5 2 1
v 2.5 3 1
v 2.5 4 1
v 2.5 5 1
v 3.5 1 1
v 3.5 2 1
v 3.5 3 1
v 3.5 4 1
v 3.5 5 1
v 4.5 1 1
v 4.5 2 1
v 4.5 3 1
v 4.5 4 1
v -4.5 3 -1
v -4.5 4 -1
v -4.5 5 -1
v -3.5 3 -1
v -3.5 4 -1
v -2.5 5 -1
v -2.5 6 -1
v -1.5 3 -1
v -1.5 4 -1
v -0.5 4 -1
v -0.5 5 -1
v -0.5 6 -1
v 0.5 2 -1
v 0.5 3 -1
v 0.5 4 -1
v 0.5 5 -1
v 1.5 1 -1
v 1.5 2 -1
v 1.5 4 -1
v 1.5 5 -1
v 2.5 1 -1
v 2.5 2 -1
v 2.5 3 -1
v 2.5 4 -1
v 2.5 5 -1
v 3.5 1 -1
v 3.5 2 -1
v 3.5 3 -1
v 3.5 4 -1
v 3.5 5 -1
v 4.5 1 -1
v 4.5 2 -1
v 4.5 3 -1
v 4.5 4 -1
v -4.5 0 -2
v -4.5 1 -2
v -4.5 2 -2
v -4.5 3 -2
v -3.5 1 -2
v -3.5 2 -2
v -3.5 3 -2
v -3.5 4 -2
v -1.5 2 -2
v -1.5 3 -2
v -1.5 4 -2
v 0.5 1 -2
v 0.5 2 -2
v 0.5 3 -2
v 1.5 0 -2
v 1.5 1 -2
v 1.5 2 -2
v -4.5 0 2
v 1.5 0 2
v -4.5 0 -2
v 1.5 0 -2
v 1.5 1 1
v 2.5 1 1
v 3.5 1 1
v 4.5 1 1
v 1.5 1 -1
v 2.5 1 -1
v 3.5 1 -1
v 4.5 1 -1
v 0.5 2 2
v 1.5 2 2
v 0.5 2 1
v 1.5 2 1
v 0.5 2 -1
v 1.5 2 -1
v 0.5 2 -2
v 1.5 2 -2
v -4.5 3 2
v -3.5 3 2
v -1.5 3 2
v 0.5 3 2
v -4.5 3 1
v -3.5 3 1
v -1.5 3 1
v 0.5 3 1
v -4.5 3 -1
v -3.5 3 -1
v -1.5 3 -1
v 0.5 3 -1
v -4.5 3 -2
v -3.5 3 -2
v -1.5 3 -2
v 0.5 3 -2
v -3.5 4 2
v -1.5 4 2
v -3.5 4 1
v -1.5 4 1
v 3.5 4 1
v 4.5 4 1
v 3.5 4 -0
v -3.5 4 -1
v -1.5 4 -1
v 3.5 4 -1
v 4.5 4 -1
v -3.5 4 -2
v -1.5 4 -2
v -4.5 5 1
v -2.5 5 1
v -0.5 5 1
v 0.5 5 1
v 1.5 5 1
v 2.5 5 1
v 3.5 5 1
v -0.5 5 -0
v 0.5 5 -0
v 1.5 5 -0
v 2.5 5 -0
v 3.5 5 -0
v -4.5 5 -1
v -2.5 5 -1
v -0.5 5 -1
v 0.5 5 -1
v 1.5 5 -1
v 2.5 5 -1
v 3.5 5 -1
v -2.5 6 1
v -0.5 6 1
v -2.5 6 -1
v -0.5 6 -1

# faces
f 3/6/1 2/6/1 1/6/1
f 4/6/1 2/6/1 3/6/1
f 5/5/1 4/5/1 3/5/1
f 6/5/1 4/5/1 5/5/1
f 7/4/1 6/4/1 5/4/1
f 8/4/1 6/4/1 7/4/1
f 9/4/1 6/4/1 8/4/1
f 10/4/1 6/4/1 9/4/1
f 11/3/1 9/3/1 8/3/1
f 12/3/1 9/3/1 11/3/1
f 13/7/1 12/7/1 11/7/1
f 14/7/1 12/7/1 13/7/1
f 19/2/1 16/2/1 15/2/1
f 20/2/1 16/2/1 19/2/1
f 21/2/1 18/2/1 17/2/1
f 22/2/1 18/2/1 21/2/1
f 25/8/1 24/8/1 23/8/1
f 26/8/1 24/8/1 25/8/1
f 27/2/2 28/2/2 31/2/2
f 31/2/2 28/2/2 32/2/2
f 29/2/2 30/2/2 33/2/2
f 33/2/2 30/2/2 34/2/2
f 35/8/2 36/8/2 38/8/2
f 36/8/2 37/8/2 38/8/2
f 38/8/2 37/8/2 39/8/2
f 40/4/2 41/4/2 44/4/2
f 44/4/2 41/4/2 45/4/2
f 42/4/2 43/4/2 46/4/2
f 46/4/2 43/4/2 47/4/2
f 48/6/2 49/6/2 50/6/2
f 50/6/2 49/6/2 51/6/2
f 51/6/2 49/6/2 52/6/2
f 52/6/2 49/6/2 53/6/2
f 50/5/2 51/5/2 54/5/2
f 54/5/2 51/5/2 55/5/2
f 52/5/2 53/5/2 56/5/2
f 56/5/2 53/5/2 57/5/2
f 58/1/2 59/1/2 61/1/2
f 59/7/2 60/7/2 62/7/2
f 61/1/2 59/1/2 62/1/2
f 62/7/2 60/7/2 63/7/2
f 64/5/2 65/5/2 66/5/2
f 66/5/2 65/5/2 67/5/2
f 66/4/2 67/4/2 68/4/2
f 68/4/2 67/4/2 69/4/2
f 68/7/2 69/7/2 70/7/2
f 70/7/2 69/7/2 71/7/2
f 76/6/3 73/6/3 72/6/3
f 76/5/3 74/5/3 73/5/3
f 77/4/3 75/4/3 74/4/3
f 77/5/3 74/5/3 76/5/3
f 78/4/3 75/4/3 77/4/3
f 80/6/3 77/6/3 76/6/3
f 80/6/3 78/6/3 77/6/3
f 81/2/3 79/2/3 78/2/3
f 81/6/3 78/6/3 80/6/3
f 82/2/3 79/2/3 81/2/3
f 83/6/3 76/6/3 72/6/3
f 83/6/3 80/6/3 76/6/3
f 84/4/3 81/4/3 80/4/3
f 84/6/3 80/6/3 83/6/3
f 85/4/3 81/4/3 84/4/3
f 86/6/3 83/6/3 72/6/3
f 87/5/3 84/5/3 83/5/3
f 87/6/3 83/6/3 86/6/3
f 88/5/3 84/5/3 87/5/3
f 92/3/3 90/3/3 89/3/3
f 93/7/3 91/7/3 90/7/3
f 93/3/3 90/3/3 92/3/3
f 94/7/3 91/7/3 93/7/3
f 97/7/3 94/7/3 93/7/3
f 98/8/3 95/8/3 94/8/3
f 98/7/3 97/7/3 96/7/3
f 98/7/3 94/7/3 97/7/3
f 99/8/3 95/8/3 98/8/3
f 101/7/3 98/7/3 96/7/3
f 102/7/3 98/7/3 101/7/3
f 103/7/3 98/7/3 102/7/3
f 105/4/3 101/4/3 100/4/3
f 106/7/3 102/7/3 101/7/3
f 106/1/3 103/1/3 102/1/3
f 107/1/3 103/1/3 106/1/3
f 108/5/3 105/5/3 104/5/3
f 109/4/3 101/4/3 105/4/3
f 109/5/3 105/5/3 108/5/3
f 110/7/3 106/7/3 101/7/3
f 110/4/3 101/4/3 109/4/3
f 110/7/3 107/7/3 106/7/3
f 111/7/3 107/7/3 110/7/3
f 112/7/3 107/7/3 111/7/3
f 113/9/3 109/9/3 108/9/3
f 113/9/3 110/9/3 109/9/3
f 114/9/3 110/9/3 113/9/3
f 115/7/3 111/7/3 110/7/3
f 115/9/3 110/9/3 114/9/3
f 116/1/3 112/1/3 111/1/3
f 116/7/3 111/7/3 115/7/3
f 117/1/3 112/1/3 116/1/3
f 118/5/3 114/5/3 113/5/3
f 119/4/3 115/4/3 114/4/3
f 119/5/3 114/5/3 118/5/3
f 120/7/3 116/7/3 115/7/3
f 120/4/3 115/4/3 119/4/3
f 121/7/3 116/7/3 120/7/3
f 122/3/4 123/3/4 125/3/4
f 123/7/4 124/7/4 126/7/4
f 125/3/4 123/3/4 126/3/4
f 126/7/4 124/7/4 127/7/4
f 126/7/4 127/7/4 130/7/4
f 130/7/4 127/7/4 131/7/4
f 129/7/4 130/7/4 131/7/4
f 127/8/4 128/8/4 132/8/4
f 131/7/4 127/7/4 132/7/4
f 132/8/4 128/8/4 133/8/4
f 129/7/4 131/7/4 135/7/4
f 131/1/4 132/1/4 136/1/4
f 135/7/4 131/7/4 136/7/4
f 136/1/4 132/1/4 137/1/4
f 134/4/4 135/4/4 139/4/4
f 135/7/4 136/7/4 140/7/4
f 136/7/4 137/7/4 140/7/4
f 140/7/4 137/7/4 141/7/4
f 138/5/4 139/5/4 142/5/4
f 139/4/4 135/4/4 143/4/4
f 142/5/4 139/5/4 143/5/4
f 135/7/4 140/7/4 144/7/4
f 143/4/4 135/4/4 144/4/4
f 140/1/4 141/1/4 145/1/4
f 144/7/4 140/7/4 145/7/4
f 145/1/4 141/1/4 146/1/4
f 142/9/4 143/9/4 147/9/4
f 143/9/4 144/9/4 147/9/4
f 147/9/4 144/9/4 148/9/4
f 145/7/4 146/7/4 149/7/4
f 148/9/4 144/9/4 149/9/4
f 144/7/4 145/7/4 149/7/4
f 149/7/4 146/7/4 150/7/4
f 150/7/4 146/7/4 151/7/4
f 147/5/4 148/5/4 152/5/4
f 148/4/4 149/4/4 153/4/4
f 152/5/4 148/5/4 153/5/4
f 149/7/4 150/7/4 154/7/4
f 153/4/4 149/4/4 154/4/4
f 154/7/4 150/7/4 155/7/4
f 156/6/4 157/6/4 160/6/4
f 157/5/4 158/5/4 160/5/4
f 158/4/4 159/4/4 161/4/4
f 160/5/4 158/5/4 161/5/4
f 161/4/4 159/4/4 162/4/4
f 160/6/4 161/6/4 164/6/4
f 161/6/4 162/6/4 164/6/4
f 162/2/4 163/2/4 165/2/4
f 164/6/4 162/6/4 165/6/4
f 165/2/4 163/2/4 166/2/4
f 156/6/4 160/6/4 167/6/4
f 160/6/4 164/6/4 167/6/4
f 164/4/4 165/4/4 168/4/4
f 167/6/4 164/6/4 168/6/4
f 168/4/4 165/4/4 169/4/4
f 156/6/4 167/6/4 170/6/4
f 167/5/4 168/5/4 171/5/4
f 170/6/4 167/6/4 171/6/4
f 171/5/4 168/5/4 172/5/4
f 175/6/5 174/6/5 173/6/5
f 176/6/5 174/6/5 175/6/5
f 181/5/5 178/5/5 177/5/5
f 182/9/5 179/9/5 178/9/5
f 182/5/5 178/5/5 181/5/5
f 183/5/5 180/5/5 179/5/5
f 183/9/5 179/9/5 182/9/5
f 184/5/5 180/5/5 183/5/5
f 185/5/6 186/5/6 187/5/6
f 187/5/6 186/5/6 188/5/6
f 189/5/6 190/5/6 191/5/6
f 191/5/6 190/5/6 192/5/6
f 193/4/6 194/4/6 197/4/6
f 197/4/6 194/4/6 198/4/6
f 195/4/6 196/4/6 199/4/6
f 199/4/6 196/4/6 200/4/6
f 201/4/6 202/4/6 205/4/6
f 205/4/6 202/4/6 206/4/6
f 203/4/6 204/4/6 207/4/6
f 207/4/6 204/4/6 208/4/6
f 209/2/6 210/2/6 211/2/6
f 211/2/6 210/2/6 212/2/6
f 213/7/6 214/7/6 215/7/6
f 215/7/6 214/7/6 218/7/6
f 218/7/6 214/7/6 219/7/6
f 216/2/6 217/2/6 220/2/6
f 220/2/6 217/2/6 221/2/6
f 224/7/6 225/7/6 229/7/6
f 225/1/6 226/1/6 230/1/6
f 229/7/6 225/7/6 230/7/6
f 226/7/6 227/7/6 231/7/6
f 230/1/6 226/1/6 231/1/6
f 227/1/6 228/1/6 232/1/6
f 231/7/6 227/7/6 232/7/6
f 232/1/6 228/1/6 233/1/6
f 222/7/6 223/7/6 234/7/6
f 234/7/6 223/7/6 235/7/6
f 229/1/6 230/1/6 236/1/6
f 230/7/6 231/7/6 237/7/6
f 236/1/6 230/1/6 237/1/6
f 231/1/6 232/1/6 238/1/6
f 237/7/6 231/7/6 238/7/6
f 232/7/6 233/7/6 239/7/6
f 238/1/6 232/1/6 239/1/6
f 239/7/6 233/7/6 240/7/6
f 241/8/6 242/8/6 243/8/6
f 243/8/6 242/8/6 244/8/6
