# MagicaVoxel @ ephtracy

# material
mtllib Red Laser Right.mtl
usemtl palette

# normals
vn -1 0 0
vn 1 0 0
vn 0 0 1
vn 0 0 -1
vn 0 -1 0
vn 0 1 0

# texcoords
vt 0.841797 0.5
vt 0.853516 0.5
vt 0.857422 0.5
vt 0.861328 0.5
vt 0.865234 0.5
vt 0.869141 0.5
vt 0.986328 0.5
vt 0.990234 0.5
vt 0.994141 0.5

# verts
v -4.5 1 1
v -4.5 1 -1
v -4.5 2 1
v -4.5 2 -1
v -4.5 3 1
v -4.5 3 -1
v -4.5 4 1
v -4.5 4 -1
v -3.5 4 1
v -3.5 4 -0
v -3.5 4 -1
v -3.5 5 1
v -3.5 5 -0
v -3.5 5 -1
v -1.5 0 2
v -1.5 0 -2
v -1.5 1 2
v -1.5 1 1
v -1.5 1 -1
v -1.5 1 -2
v -1.5 2 2
v -1.5 2 1
v -1.5 2 -1
v -1.5 2 -2
v -0.5 2 2
v -0.5 2 1
v -0.5 2 -1
v -0.5 2 -2
v -0.5 3 2
v -0.5 3 1
v -0.5 3 -1
v -0.5 3 -2
v 0.5 5 1
v 0.5 5 -0
v 0.5 5 -1
v 0.5 6 1
v 0.5 6 -1
v 1.5 3 2
v 1.5 3 1
v 1.5 3 -1
v 1.5 3 -2
v 1.5 4 2
v 1.5 4 1
v 1.5 4 -1
v 1.5 4 -2
v 2.5 5 1
v 2.5 5 -1
v 2.5 6 1
v 2.5 6 -1
v 3.5 3 2
v 3.5 3 1
v 3.5 3 -1
v 3.5 3 -2
v 3.5 4 2
v 3.5 4 1
v 3.5 4 -1
v 3.5 4 -2
v 4.5 0 2
v 4.5 0 -2
v 4.5 1 2
v 4.5 1 -2
v 4.5 2 2
v 4.5 2 -2
v 4.5 3 2
v 4.5 3 1
v 4.5 3 -1
v 4.5 3 -2
v 4.5 4 1
v 4.5 4 -1
v 4.5 5 1
v 4.5 5 -1
v -1.5 0 2
v -1.5 1 2
v -1.5 2 2
v -0.5 1 2
v -0.5 2 2
v -0.5 3 2
v 1.5 2 2
v 1.5 3 2
v 1.5 4 2
v 3.5 1 2
v 3.5 2 2
v 3.5 3 2
v 3.5 4 2
v 4.5 0 2
v 4.5 1 2
v 4.5 2 2
v 4.5 3 2
v -4.5 1 1
v -4.5 2 1
v -4.5 3 1
v -4.5 4 1
v -3.5 1 1
v -3.5 2 1
v -3.5 3 1
v -3.5 4 1
v -3.5 5 1
v -2.5 1 1
v -2.5 2 1
v -2.5 3 1
v -2.5 4 1
v -2.5 5 1
v -1.5 1 1
v -1.5 2 1
v -1.5 4 1
v -1.5 5 1
v -0.5 2 1
v -0.5 3 1
v -0.5 4 1
v -0.5 5 1
v 0.5 5 1
v 0.5 6 1
v 1.5 3 1
v 1.5 4 1
v 2.5 5 1
v 2.5 6 1
v 3.5 3 1
v 3.5 4 1
v 4.5 3 1
v 4.5 4 1
v 4.5 5 1
v -4.5 1 -1
v -4.5 2 -1
v -4.5 3 -1
v -4.5 4 -1
v -3.5 1 -1
v -3.5 2 -1
v -3.5 3 -1
v -3.5 4 -1
v -3.5 5 -1
v -2.5 1 -1
v -2.5 2 -1
v -2.5 3 -1
v -2.5 4 -1
v -2.5 5 -1
v -1.5 1 -1
v -1.5 2 -1
v -1.5 4 -1
v -1.5 5 -1
v -0.5 2 -1
v -0.5 3 -1
v -0.5 4 -1
v -0.5 5 -1
v 0.5 4 -1
v 0.5 5 -1
v 0.5 6 -1
v 1.5 3 -1
v 1.5 4 -1
v 2.5 5 -1
v 2.5 6 -1
v 3.5 3 -1
v 3.5 4 -1
v 4.5 3 -1
v 4.5 4 -1
v 4.5 5 -1
v -1.5 0 -2
v -1.5 1 -2
v -1.5 2 -2
v -0.5 1 -2
v -0.5 2 -2
v -0.5 3 -2
v 1.5 2 -2
v 1.5 3 -2
v 1.5 4 -2
v 3.5 1 -2
v 3.5 2 -2
v 3.5 3 -2
v 3.5 4 -2
v 4.5 0 -2
v 4.5 1 -2
v 4.5 2 -2
v 4.5 3 -2
v -1.5 0 2
v 4.5 0 2
v -1.5 0 -2
v 4.5 0 -2
v -4.5 1 1
v -3.5 1 1
v -2.5 1 1
v -1.5 1 1
v -4.5 1 -1
v -3.5 1 -1
v -2.5 1 -1
v -1.5 1 -1
v -1.5 2 2
v -0.5 2 2
v -1.5 2 1
v -0.5 2 1
v -1.5 2 -1
v -0.5 2 -1
v -1.5 2 -2
v -0.5 2 -2
v -0.5 3 2
v 1.5 3 2
v 3.5 3 2
v 4.5 3 2
v -0.5 3 1
v 1.5 3 1
v 3.5 3 1
v 4.5 3 1
v -0.5 3 -1
v 1.5 3 -1
v 3.5 3 -1
v 4.5 3 -1
v -0.5 3 -2
v 1.5 3 -2
v 3.5 3 -2
v 4.5 3 -2
v 1.5 4 2
v 3.5 4 2
v -4.5 4 1
v -3.5 4 1
v 1.5 4 1
v 3.5 4 1
v -3.5 4 -0
v -4.5 4 -1
v -3.5 4 -1
v 1.5 4 -1
v 3.5 4 -1
v 1.5 4 -2
v 3.5 4 -2
v -3.5 5 1
v -2.5 5 1
v -1.5 5 1
v -0.5 5 1
v 0.5 5 1
v 2.5 5 1
v 4.5 5 1
v -3.5 5 -0
v -2.5 5 -0
v -1.5 5 -0
v -0.5 5 -0
v 0.5 5 -0
v -3.5 5 -1
v -2.5 5 -1
v -1.5 5 -1
v -0.5 5 -1
v 0.5 5 -1
v 2.5 5 -1
v 4.5 5 -1
v 0.5 6 1
v 2.5 6 1
v 0.5 6 -1
v 2.5 6 -1

# faces
f 3/5/1 2/5/1 1/5/1
f 4/5/1 2/5/1 3/5/1
f 5/4/1 4/4/1 3/4/1
f 6/4/1 4/4/1 5/4/1
f 7/7/1 6/7/1 5/7/1
f 8/7/1 6/7/1 7/7/1
f 12/1/1 10/1/1 9/1/1
f 13/7/1 11/7/1 10/7/1
f 13/1/1 10/1/1 12/1/1
f 14/7/1 11/7/1 13/7/1
f 17/6/1 16/6/1 15/6/1
f 18/6/1 16/6/1 17/6/1
f 19/6/1 16/6/1 18/6/1
f 20/6/1 16/6/1 19/6/1
f 21/5/1 18/5/1 17/5/1
f 22/5/1 18/5/1 21/5/1
f 23/5/1 20/5/1 19/5/1
f 24/5/1 20/5/1 23/5/1
f 29/4/1 26/4/1 25/4/1
f 30/4/1 26/4/1 29/4/1
f 31/4/1 28/4/1 27/4/1
f 32/4/1 28/4/1 31/4/1
f 36/8/1 34/8/1 33/8/1
f 36/8/1 35/8/1 34/8/1
f 37/8/1 35/8/1 36/8/1
f 42/2/1 39/2/1 38/2/1
f 43/2/1 39/2/1 42/2/1
f 44/2/1 41/2/1 40/2/1
f 45/2/1 41/2/1 44/2/1
f 46/8/2 47/8/2 48/8/2
f 48/8/2 47/8/2 49/8/2
f 50/2/2 51/2/2 54/2/2
f 54/2/2 51/2/2 55/2/2
f 52/2/2 53/2/2 56/2/2
f 56/2/2 53/2/2 57/2/2
f 58/6/2 59/6/2 60/6/2
f 60/6/2 59/6/2 61/6/2
f 60/5/2 61/5/2 62/5/2
f 62/5/2 61/5/2 63/5/2
f 62/4/2 63/4/2 64/4/2
f 64/4/2 63/4/2 65/4/2
f 65/4/2 63/4/2 66/4/2
f 66/4/2 63/4/2 67/4/2
f 65/3/2 66/3/2 68/3/2
f 68/3/2 66/3/2 69/3/2
f 68/7/2 69/7/2 70/7/2
f 70/7/2 69/7/2 71/7/2
f 75/6/3 73/6/3 72/6/3
f 75/5/3 74/5/3 73/5/3
f 76/5/3 74/5/3 75/5/3
f 78/6/3 76/6/3 75/6/3
f 78/4/3 77/4/3 76/4/3
f 79/4/3 77/4/3 78/4/3
f 81/6/3 75/6/3 72/6/3
f 81/6/3 78/6/3 75/6/3
f 81/6/3 79/6/3 78/6/3
f 82/6/3 79/6/3 81/6/3
f 83/2/3 80/2/3 79/2/3
f 83/6/3 79/6/3 82/6/3
f 84/2/3 80/2/3 83/2/3
f 85/6/3 81/6/3 72/6/3
f 86/5/3 82/5/3 81/5/3
f 86/6/3 81/6/3 85/6/3
f 87/4/3 83/4/3 82/4/3
f 87/5/3 82/5/3 86/5/3
f 88/4/3 83/4/3 87/4/3
f 93/5/3 90/5/3 89/5/3
f 94/4/3 91/4/3 90/4/3
f 94/5/3 90/5/3 93/5/3
f 95/7/3 92/7/3 91/7/3
f 95/4/3 91/4/3 94/4/3
f 96/7/3 92/7/3 95/7/3
f 98/9/3 94/9/3 93/9/3
f 98/9/3 95/9/3 94/9/3
f 99/9/3 95/9/3 98/9/3
f 100/7/3 96/7/3 95/7/3
f 100/9/3 95/9/3 99/9/3
f 101/1/3 97/1/3 96/1/3
f 101/7/3 96/7/3 100/7/3
f 102/1/3 97/1/3 101/1/3
f 103/5/3 99/5/3 98/5/3
f 104/4/3 100/4/3 99/4/3
f 104/5/3 99/5/3 103/5/3
f 105/7/3 101/7/3 100/7/3
f 105/7/3 102/7/3 101/7/3
f 106/7/3 102/7/3 105/7/3
f 107/4/3 100/4/3 104/4/3
f 108/7/3 105/7/3 100/7/3
f 108/4/3 100/4/3 107/4/3
f 109/1/3 106/1/3 105/1/3
f 109/7/3 105/7/3 108/7/3
f 110/1/3 106/1/3 109/1/3
f 111/7/3 109/7/3 108/7/3
f 111/7/3 110/7/3 109/7/3
f 113/7/3 111/7/3 108/7/3
f 114/7/3 111/7/3 113/7/3
f 115/8/3 112/8/3 111/8/3
f 115/7/3 111/7/3 114/7/3
f 116/8/3 112/8/3 115/8/3
f 118/7/3 115/7/3 114/7/3
f 119/3/3 118/3/3 117/3/3
f 120/7/3 115/7/3 118/7/3
f 120/3/3 118/3/3 119/3/3
f 121/7/3 115/7/3 120/7/3
f 122/5/4 123/5/4 126/5/4
f 123/4/4 124/4/4 127/4/4
f 126/5/4 123/5/4 127/5/4
f 124/7/4 125/7/4 128/7/4
f 127/4/4 124/4/4 128/4/4
f 128/7/4 125/7/4 129/7/4
f 126/9/4 127/9/4 131/9/4
f 127/9/4 128/9/4 131/9/4
f 131/9/4 128/9/4 132/9/4
f 129/7/4 130/7/4 133/7/4
f 132/9/4 128/9/4 133/9/4
f 128/7/4 129/7/4 133/7/4
f 133/7/4 130/7/4 134/7/4
f 134/7/4 130/7/4 135/7/4
f 131/5/4 132/5/4 136/5/4
f 132/4/4 133/4/4 137/4/4
f 136/5/4 132/5/4 137/5/4
f 133/7/4 134/7/4 138/7/4
f 134/1/4 135/1/4 138/1/4
f 138/1/4 135/1/4 139/1/4
f 137/4/4 133/4/4 140/4/4
f 138/7/4 139/7/4 141/7/4
f 140/4/4 133/4/4 141/4/4
f 133/7/4 138/7/4 141/7/4
f 141/7/4 139/7/4 142/7/4
f 142/7/4 139/7/4 143/7/4
f 141/7/4 142/7/4 144/7/4
f 142/1/4 143/1/4 144/1/4
f 144/1/4 143/1/4 145/1/4
f 144/7/4 145/7/4 147/7/4
f 141/7/4 144/7/4 147/7/4
f 147/7/4 145/7/4 148/7/4
f 145/8/4 146/8/4 149/8/4
f 148/7/4 145/7/4 149/7/4
f 149/8/4 146/8/4 150/8/4
f 148/7/4 149/7/4 152/7/4
f 151/3/4 152/3/4 153/3/4
f 152/7/4 149/7/4 154/7/4
f 153/3/4 152/3/4 154/3/4
f 154/7/4 149/7/4 155/7/4
f 156/6/4 157/6/4 159/6/4
f 157/5/4 158/5/4 159/5/4
f 159/5/4 158/5/4 160/5/4
f 159/6/4 160/6/4 162/6/4
f 160/4/4 161/4/4 162/4/4
f 162/4/4 161/4/4 163/4/4
f 156/6/4 159/6/4 165/6/4
f 159/6/4 162/6/4 165/6/4
f 162/6/4 163/6/4 165/6/4
f 165/6/4 163/6/4 166/6/4
f 163/2/4 164/2/4 167/2/4
f 166/6/4 163/6/4 167/6/4
f 167/2/4 164/2/4 168/2/4
f 156/6/4 165/6/4 169/6/4
f 165/5/4 166/5/4 170/5/4
f 169/6/4 165/6/4 170/6/4
f 166/4/4 167/4/4 171/4/4
f 170/5/4 166/5/4 171/5/4
f 171/4/4 167/4/4 172/4/4
f 175/6/5 174/6/5 173/6/5
f 176/6/5 174/6/5 175/6/5
f 181/5/5 178/5/5 177/5/5
f 182/9/5 179/9/5 178/9/5
f 182/5/5 178/5/5 181/5/5
f 183/5/5 180/5/5 179/5/5
f 183/9/5 179/9/5 182/9/5
f 184/5/5 180/5/5 183/5/5
f 185/5/6 186/5/6 187/5/6
f 187/5/6 186/5/6 188/5/6
f 189/5/6 190/5/6 191/5/6
f 191/5/6 190/5/6 192/5/6
f 193/4/6 194/4/6 197/4/6
f 197/4/6 194/4/6 198/4/6
f 195/4/6 196/4/6 199/4/6
f 199/4/6 196/4/6 200/4/6
f 201/4/6 202/4/6 205/4/6
f 205/4/6 202/4/6 206/4/6
f 203/4/6 204/4/6 207/4/6
f 207/4/6 204/4/6 208/4/6
f 209/2/6 210/2/6 213/2/6
f 213/2/6 210/2/6 214/2/6
f 211/7/6 212/7/6 215/7/6
f 211/7/6 215/7/6 216/7/6
f 216/7/6 215/7/6 217/7/6
f 218/2/6 219/2/6 220/2/6
f 220/2/6 219/2/6 221/2/6
f 222/1/6 223/1/6 229/1/6
f 223/7/6 224/7/6 230/7/6
f 229/1/6 223/1/6 230/1/6
f 224/1/6 225/1/6 231/1/6
f 230/7/6 224/7/6 231/7/6
f 225/7/6 226/7/6 232/7/6
f 231/1/6 225/1/6 232/1/6
f 232/7/6 226/7/6 233/7/6
f 229/7/6 230/7/6 234/7/6
f 230/1/6 231/1/6 235/1/6
f 234/7/6 230/7/6 235/7/6
f 231/7/6 232/7/6 236/7/6
f 235/1/6 231/1/6 236/1/6
f 232/1/6 233/1/6 237/1/6
f 236/7/6 232/7/6 237/7/6
f 237/1/6 233/1/6 238/1/6
f 227/7/6 228/7/6 239/7/6
f 239/7/6 228/7/6 240/7/6
f 241/8/6 242/8/6 243/8/6
f 243/8/6 242/8/6 244/8/6
