# MagicaVoxel @ ephtracy

# material
mtllib Door Lights Red R.mtl
usemtl palette

# normals
vn -1 0 0
vn 1 0 0
vn 0 0 1
vn 0 0 -1
vn 0 -1 0
vn 0 1 0

# texcoords
vt 0.841797 0.5
vt 0.845703 0.5

# verts
v -1 0 1
v -1 0 -1
v -1 2 1
v -1 2 -1
v 1 0 1
v 1 0 -1
v 1 1 -0
v 1 1 -1
v 1 2 1
v 1 2 -0
v 1 2 -1
v -1 0 1
v -1 2 1
v 1 0 1
v 1 2 1
v -1 0 -1
v -1 2 -1
v 0 1 -1
v 0 2 -1
v 1 0 -1
v 1 1 -1
v 1 2 -1
v -1 0 1
v 1 0 1
v -1 0 -1
v 1 0 -1
v -1 2 1
v 1 2 1
v 0 2 -0
v 1 2 -0
v -1 2 -1
v 0 2 -1
v 1 2 -1

# faces
f 3/2/1 2/2/1 1/2/1
f 4/2/1 2/2/1 3/2/1
f 5/2/2 6/2/2 7/2/2
f 7/2/2 6/2/2 8/2/2
f 5/2/2 7/2/2 9/2/2
f 7/1/2 8/1/2 10/1/2
f 9/2/2 7/2/2 10/2/2
f 10/1/2 8/1/2 11/1/2
f 14/2/3 13/2/3 12/2/3
f 15/2/3 13/2/3 14/2/3
f 16/2/4 17/2/4 18/2/4
f 18/2/4 17/2/4 19/2/4
f 16/2/4 18/2/4 20/2/4
f 18/1/4 19/1/4 21/1/4
f 20/2/4 18/2/4 21/2/4
f 21/1/4 19/1/4 22/1/4
f 25/2/5 24/2/5 23/2/5
f 26/2/5 24/2/5 25/2/5
f 27/2/6 28/2/6 29/2/6
f 29/2/6 28/2/6 30/2/6
f 27/2/6 29/2/6 31/2/6
f 29/1/6 30/1/6 32/1/6
f 31/2/6 29/2/6 32/2/6
f 32/1/6 30/1/6 33/1/6
