# MagicaVoxel @ ephtracy

# material
mtllib Door Generic Left.mtl
usemtl palette

# normals
vn -1 0 0
vn 1 0 0
vn 0 0 1
vn 0 0 -1
vn 0 -1 0
vn 0 1 0

# texcoords
vt 0.0175781 0.5
vt 0.974609 0.5
vt 0.978516 0.5
vt 0.982422 0.5
vt 0.986328 0.5
vt 0.990234 0.5

# verts
v -11 0 2
v -11 0 -2
v -11 1 2
v -11 1 1
v -11 1 -1
v -11 1 -2
v -11 5 2
v -11 5 1
v -11 5 -1
v -11 5 -2
v -11 6 2
v -11 6 1
v -11 6 -1
v -11 6 -2
v -11 8 2
v -11 8 1
v -11 8 -1
v -11 8 -2
v -11 9 2
v -11 9 -2
v -9 9 1
v -9 9 -1
v -9 10 1
v -9 10 -1
v 10 9 1
v 10 9 -1
v 10 10 1
v 10 10 -1
v 8 9 1
v 8 9 -0
v 8 9 -1
v 8 10 1
v 8 10 -0
v 8 10 -1
v 11 0 2
v 11 0 1
v 11 0 -1
v 11 0 -2
v 11 9 2
v 11 9 1
v 11 9 -1
v 11 9 -2
v 11 10 1
v 11 10 -1
v -11 0 2
v -11 1 2
v -11 5 2
v -11 6 2
v -11 8 2
v -11 9 2
v -9 8 2
v -9 9 2
v -7 8 2
v -7 9 2
v -4 8 2
v -4 9 2
v -2 8 2
v -2 9 2
v -1 5 2
v -1 6 2
v -1 7 2
v 0 6 2
v 0 7 2
v 0 8 2
v 1 7 2
v 1 8 2
v 1 9 2
v 3 8 2
v 3 9 2
v 5 1 2
v 5 8 2
v 6 1 2
v 6 5 2
v 6 6 2
v 6 8 2
v 6 9 2
v 7 4 2
v 7 5 2
v 8 8 2
v 8 9 2
v 9 4 2
v 9 5 2
v 10 0 2
v 10 1 2
v 10 5 2
v 10 6 2
v 10 8 2
v 10 9 2
v 11 0 2
v 11 9 2
v -9 9 1
v -9 10 1
v -8 9 1
v -8 10 1
v -7 9 1
v -6 9 1
v -6 10 1
v -4 9 1
v -3 9 1
v -3 10 1
v -2 9 1
v -1 9 1
v -1 10 1
v 1 9 1
v 2 9 1
v 2 10 1
v 3 9 1
v 4 9 1
v 4 10 1
v 6 9 1
v 7 9 1
v 7 10 1
v 8 9 1
v 8 10 1
v 10 9 1
v 10 10 1
v 11 9 1
v 11 10 1
v -9 9 -1
v -9 10 -1
v -7 9 -1
v -7 10 -1
v -6 9 -1
v -5 9 -1
v -5 10 -1
v -4 9 -1
v -2 9 -1
v -2 10 -1
v -1 9 -1
v 0 9 -1
v 0 10 -1
v 1 9 -1
v 3 9 -1
v 3 10 -1
v 4 9 -1
v 5 9 -1
v 5 10 -1
v 6 9 -1
v 8 9 -1
v 8 10 -1
v 10 9 -1
v 10 10 -1
v 11 9 -1
v 11 10 -1
v -11 0 -2
v -11 1 -2
v -11 5 -2
v -11 6 -2
v -11 8 -2
v -11 9 -2
v -6 8 -2
v -6 9 -2
v -4 8 -2
v -4 9 -2
v -1 5 -2
v -1 6 -2
v -1 7 -2
v -1 8 -2
v -1 9 -2
v 0 6 -2
v 0 7 -2
v 0 8 -2
v 1 7 -2
v 1 8 -2
v 1 9 -2
v 4 8 -2
v 4 9 -2
v 5 1 -2
v 5 8 -2
v 6 1 -2
v 6 5 -2
v 6 6 -2
v 6 8 -2
v 6 9 -2
v 7 4 -2
v 7 5 -2
v 9 4 -2
v 9 5 -2
v 9 8 -2
v 9 9 -2
v 10 0 -2
v 10 1 -2
v 10 5 -2
v 10 6 -2
v 10 8 -2
v 10 9 -2
v 11 0 -2
v 11 9 -2
v -11 0 2
v 10 0 2
v 11 0 2
v 10 0 1
v 11 0 1
v 10 0 -1
v 11 0 -1
v -11 0 -2
v 10 0 -2
v 11 0 -2
v -11 9 2
v -9 9 2
v -7 9 2
v -4 9 2
v -2 9 2
v 1 9 2
v 3 9 2
v 6 9 2
v 8 9 2
v 10 9 2
v 11 9 2
v -9 9 1
v -8 9 1
v -7 9 1
v -6 9 1
v -4 9 1
v -3 9 1
v -2 9 1
v -1 9 1
v 1 9 1
v 2 9 1
v 3 9 1
v 4 9 1
v 6 9 1
v 7 9 1
v 8 9 1
v 10 9 1
v 11 9 1
v 8 9 -0
v -9 9 -1
v -7 9 -1
v -6 9 -1
v -5 9 -1
v -4 9 -1
v -2 9 -1
v -1 9 -1
v 0 9 -1
v 1 9 -1
v 3 9 -1
v 4 9 -1
v 5 9 -1
v 6 9 -1
v 8 9 -1
v 9 9 -1
v 10 9 -1
v 11 9 -1
v -11 9 -2
v -6 9 -2
v -4 9 -2
v -1 9 -2
v 1 9 -2
v 4 9 -2
v 6 9 -2
v 9 9 -2
v 10 9 -2
v 11 9 -2
v -9 10 1
v -8 10 1
v -6 10 1
v -3 10 1
v -1 10 1
v 2 10 1
v 4 10 1
v 7 10 1
v 8 10 1
v 10 10 1
v 11 10 1
v -8 10 -0
v -7 10 -0
v -6 10 -0
v -5 10 -0
v -3 10 -0
v -2 10 -0
v -1 10 -0
v 0 10 -0
v 2 10 -0
v 3 10 -0
v 4 10 -0
v 5 10 -0
v 7 10 -0
v 8 10 -0
v -9 10 -1
v -7 10 -1
v -5 10 -1
v -2 10 -1
v 0 10 -1
v 3 10 -1
v 5 10 -1
v 8 10 -1
v 10 10 -1
v 11 10 -1

# faces
f 3/5/1 2/5/1 1/5/1
f 4/5/1 2/5/1 3/5/1
f 5/5/1 2/5/1 4/5/1
f 6/5/1 2/5/1 5/5/1
f 7/3/1 4/3/1 3/3/1
f 8/5/1 5/5/1 4/5/1
f 8/3/1 4/3/1 7/3/1
f 9/2/1 6/2/1 5/2/1
f 9/5/1 5/5/1 8/5/1
f 10/2/1 6/2/1 9/2/1
f 11/6/1 8/6/1 7/6/1
f 12/5/1 9/5/1 8/5/1
f 12/6/1 8/6/1 11/6/1
f 13/6/1 10/6/1 9/6/1
f 13/5/1 9/5/1 12/5/1
f 14/6/1 10/6/1 13/6/1
f 15/3/1 12/3/1 11/3/1
f 16/5/1 13/5/1 12/5/1
f 16/3/1 12/3/1 15/3/1
f 17/2/1 14/2/1 13/2/1
f 17/5/1 13/5/1 16/5/1
f 18/2/1 14/2/1 17/2/1
f 19/5/1 16/5/1 15/5/1
f 19/5/1 17/5/1 16/5/1
f 19/5/1 18/5/1 17/5/1
f 20/5/1 18/5/1 19/5/1
f 23/5/1 22/5/1 21/5/1
f 24/5/1 22/5/1 23/5/1
f 27/6/1 26/6/1 25/6/1
f 28/6/1 26/6/1 27/6/1
f 29/1/2 30/1/2 32/1/2
f 30/5/2 31/5/2 33/5/2
f 32/1/2 30/1/2 33/1/2
f 33/5/2 31/5/2 34/5/2
f 35/6/2 36/6/2 39/6/2
f 36/5/2 37/5/2 40/5/2
f 39/6/2 36/6/2 40/6/2
f 37/6/2 38/6/2 41/6/2
f 40/5/2 37/5/2 41/5/2
f 41/6/2 38/6/2 42/6/2
f 40/6/2 41/6/2 43/6/2
f 43/6/2 41/6/2 44/6/2
f 51/3/3 49/3/3 48/3/3
f 51/5/3 50/5/3 49/5/3
f 52/5/3 50/5/3 51/5/3
f 53/3/3 51/3/3 48/3/3
f 53/1/3 52/1/3 51/1/3
f 54/1/3 52/1/3 53/1/3
f 55/3/3 53/3/3 48/3/3
f 55/5/3 54/5/3 53/5/3
f 56/5/3 54/5/3 55/5/3
f 57/3/3 55/3/3 48/3/3
f 57/1/3 56/1/3 55/1/3
f 58/1/3 56/1/3 57/1/3
f 59/3/3 47/3/3 46/3/3
f 59/6/3 48/6/3 47/6/3
f 60/3/3 57/3/3 48/3/3
f 60/6/3 48/6/3 59/6/3
f 61/3/3 57/3/3 60/3/3
f 62/3/3 60/3/3 59/3/3
f 62/6/3 61/6/3 60/6/3
f 63/3/3 57/3/3 61/3/3
f 63/6/3 61/6/3 62/6/3
f 64/5/3 58/5/3 57/5/3
f 64/3/3 57/3/3 63/3/3
f 65/3/3 63/3/3 62/3/3
f 65/6/3 64/6/3 63/6/3
f 66/5/3 58/5/3 64/5/3
f 66/6/3 64/6/3 65/6/3
f 67/5/3 58/5/3 66/5/3
f 68/3/3 66/3/3 65/3/3
f 68/1/3 67/1/3 66/1/3
f 69/1/3 67/1/3 68/1/3
f 70/5/3 46/5/3 45/5/3
f 70/3/3 65/3/3 62/3/3
f 70/3/3 59/3/3 46/3/3
f 70/3/3 68/3/3 65/3/3
f 70/3/3 62/3/3 59/3/3
f 71/5/3 69/5/3 68/5/3
f 71/3/3 68/3/3 70/3/3
f 72/5/3 70/5/3 45/5/3
f 72/6/3 71/6/3 70/6/3
f 73/6/3 71/6/3 72/6/3
f 74/6/3 71/6/3 73/6/3
f 75/5/3 69/5/3 71/5/3
f 75/6/3 71/6/3 74/6/3
f 76/5/3 69/5/3 75/5/3
f 77/3/3 73/3/3 72/3/3
f 78/6/3 74/6/3 73/6/3
f 78/3/3 73/3/3 77/3/3
f 79/3/3 75/3/3 74/3/3
f 79/1/3 76/1/3 75/1/3
f 80/1/3 76/1/3 79/1/3
f 81/3/3 77/3/3 72/3/3
f 81/4/3 78/4/3 77/4/3
f 82/6/3 74/6/3 78/6/3
f 82/4/3 78/4/3 81/4/3
f 83/5/3 72/5/3 45/5/3
f 84/3/3 81/3/3 72/3/3
f 84/5/3 72/5/3 83/5/3
f 84/3/3 82/3/3 81/3/3
f 85/6/3 74/6/3 82/6/3
f 85/3/3 82/3/3 84/3/3
f 86/3/3 79/3/3 74/3/3
f 86/6/3 74/6/3 85/6/3
f 87/5/3 80/5/3 79/5/3
f 87/3/3 79/3/3 86/3/3
f 88/5/3 80/5/3 87/5/3
f 89/6/3 84/6/3 83/6/3
f 89/6/3 86/6/3 85/6/3
f 89/6/3 88/6/3 87/6/3
f 89/6/3 87/6/3 86/6/3
f 89/6/3 85/6/3 84/6/3
f 90/6/3 88/6/3 89/6/3
f 93/5/3 92/5/3 91/5/3
f 94/5/3 92/5/3 93/5/3
f 95/1/3 94/1/3 93/1/3
f 96/1/3 94/1/3 95/1/3
f 97/1/3 94/1/3 96/1/3
f 98/5/3 97/5/3 96/5/3
f 99/5/3 97/5/3 98/5/3
f 100/5/3 97/5/3 99/5/3
f 101/1/3 100/1/3 99/1/3
f 102/1/3 100/1/3 101/1/3
f 103/1/3 100/1/3 102/1/3
f 104/5/3 103/5/3 102/5/3
f 105/5/3 103/5/3 104/5/3
f 106/5/3 103/5/3 105/5/3
f 107/1/3 106/1/3 105/1/3
f 108/1/3 106/1/3 107/1/3
f 109/1/3 106/1/3 108/1/3
f 110/5/3 109/5/3 108/5/3
f 111/5/3 109/5/3 110/5/3
f 112/5/3 109/5/3 111/5/3
f 113/1/3 112/1/3 111/1/3
f 114/1/3 112/1/3 113/1/3
f 117/6/3 116/6/3 115/6/3
f 118/6/3 116/6/3 117/6/3
f 119/5/4 120/5/4 121/5/4
f 121/5/4 120/5/4 122/5/4
f 121/1/4 122/1/4 123/1/4
f 123/1/4 122/1/4 124/1/4
f 124/1/4 122/1/4 125/1/4
f 124/5/4 125/5/4 126/5/4
f 126/5/4 125/5/4 127/5/4
f 127/5/4 125/5/4 128/5/4
f 127/1/4 128/1/4 129/1/4
f 129/1/4 128/1/4 130/1/4
f 130/1/4 128/1/4 131/1/4
f 130/5/4 131/5/4 132/5/4
f 132/5/4 131/5/4 133/5/4
f 133/5/4 131/5/4 134/5/4
f 133/1/4 134/1/4 135/1/4
f 135/1/4 134/1/4 136/1/4
f 136/1/4 134/1/4 137/1/4
f 136/5/4 137/5/4 138/5/4
f 138/5/4 137/5/4 139/5/4
f 139/5/4 137/5/4 140/5/4
f 141/6/4 142/6/4 143/6/4
f 143/6/4 142/6/4 144/6/4
f 148/2/4 149/2/4 151/2/4
f 149/5/4 150/5/4 151/5/4
f 151/5/4 150/5/4 152/5/4
f 148/2/4 151/2/4 153/2/4
f 151/1/4 152/1/4 153/1/4
f 153/1/4 152/1/4 154/1/4
f 146/2/4 147/2/4 155/2/4
f 147/6/4 148/6/4 155/6/4
f 148/2/4 153/2/4 156/2/4
f 155/6/4 148/6/4 156/6/4
f 156/2/4 153/2/4 157/2/4
f 153/5/4 154/5/4 158/5/4
f 157/2/4 153/2/4 158/2/4
f 158/5/4 154/5/4 159/5/4
f 156/6/4 157/6/4 160/6/4
f 155/2/4 156/2/4 160/2/4
f 157/2/4 158/2/4 161/2/4
f 160/6/4 157/6/4 161/6/4
f 158/1/4 159/1/4 162/1/4
f 161/2/4 158/2/4 162/2/4
f 160/2/4 161/2/4 163/2/4
f 161/6/4 162/6/4 163/6/4
f 162/1/4 159/1/4 164/1/4
f 163/6/4 162/6/4 164/6/4
f 164/1/4 159/1/4 165/1/4
f 163/2/4 164/2/4 166/2/4
f 164/5/4 165/5/4 166/5/4
f 166/5/4 165/5/4 167/5/4
f 145/5/4 146/5/4 168/5/4
f 146/2/4 155/2/4 168/2/4
f 160/2/4 163/2/4 168/2/4
f 163/2/4 166/2/4 168/2/4
f 155/2/4 160/2/4 168/2/4
f 166/1/4 167/1/4 169/1/4
f 168/2/4 166/2/4 169/2/4
f 145/5/4 168/5/4 170/5/4
f 168/6/4 169/6/4 170/6/4
f 170/6/4 169/6/4 171/6/4
f 171/6/4 169/6/4 172/6/4
f 169/1/4 167/1/4 173/1/4
f 172/6/4 169/6/4 173/6/4
f 173/1/4 167/1/4 174/1/4
f 170/2/4 171/2/4 175/2/4
f 171/6/4 172/6/4 176/6/4
f 175/2/4 171/2/4 176/2/4
f 170/2/4 175/2/4 177/2/4
f 175/4/4 176/4/4 177/4/4
f 176/6/4 172/6/4 178/6/4
f 177/4/4 176/4/4 178/4/4
f 172/2/4 173/2/4 179/2/4
f 173/5/4 174/5/4 179/5/4
f 179/5/4 174/5/4 180/5/4
f 145/5/4 170/5/4 181/5/4
f 170/2/4 177/2/4 182/2/4
f 181/5/4 170/5/4 182/5/4
f 177/2/4 178/2/4 182/2/4
f 178/6/4 172/6/4 183/6/4
f 182/2/4 178/2/4 183/2/4
f 172/2/4 179/2/4 184/2/4
f 183/6/4 172/6/4 184/6/4
f 179/1/4 180/1/4 185/1/4
f 184/2/4 179/2/4 185/2/4
f 185/1/4 180/1/4 186/1/4
f 181/6/4 182/6/4 187/6/4
f 183/6/4 184/6/4 187/6/4
f 185/6/4 186/6/4 187/6/4
f 184/6/4 185/6/4 187/6/4
f 182/6/4 183/6/4 187/6/4
f 187/6/4 186/6/4 188/6/4
f 192/5/5 190/5/5 189/5/5
f 192/6/5 191/6/5 190/6/5
f 193/6/5 191/6/5 192/6/5
f 194/5/5 192/5/5 189/5/5
f 194/5/5 193/5/5 192/5/5
f 195/5/5 193/5/5 194/5/5
f 196/5/5 194/5/5 189/5/5
f 197/6/5 195/6/5 194/6/5
f 197/5/5 194/5/5 196/5/5
f 198/6/5 195/6/5 197/6/5
f 199/5/6 200/5/6 210/5/6
f 200/1/6 201/1/6 210/1/6
f 210/1/6 201/1/6 211/1/6
f 201/5/6 202/5/6 212/5/6
f 211/1/6 201/1/6 212/1/6
f 212/5/6 202/5/6 213/5/6
f 202/1/6 203/1/6 214/1/6
f 213/5/6 202/5/6 214/5/6
f 214/1/6 203/1/6 215/1/6
f 203/5/6 204/5/6 216/5/6
f 215/1/6 203/1/6 216/1/6
f 216/5/6 204/5/6 217/5/6
f 204/1/6 205/1/6 218/1/6
f 217/5/6 204/5/6 218/5/6
f 218/1/6 205/1/6 219/1/6
f 205/5/6 206/5/6 220/5/6
f 219/1/6 205/1/6 220/1/6
f 220/5/6 206/5/6 221/5/6
f 206/1/6 207/1/6 222/1/6
f 221/5/6 206/5/6 222/5/6
f 222/1/6 207/1/6 223/1/6
f 207/5/6 208/5/6 224/5/6
f 223/1/6 207/1/6 224/1/6
f 208/6/6 209/6/6 225/6/6
f 224/5/6 208/5/6 225/5/6
f 225/6/6 209/6/6 226/6/6
f 224/5/6 225/5/6 227/5/6
f 199/5/6 210/5/6 228/5/6
f 227/5/6 225/5/6 241/5/6
f 241/5/6 225/5/6 242/5/6
f 242/5/6 225/5/6 243/5/6
f 199/5/6 228/5/6 245/5/6
f 228/5/6 229/5/6 245/5/6
f 229/5/6 230/5/6 245/5/6
f 230/1/6 231/1/6 246/1/6
f 245/5/6 230/5/6 246/5/6
f 231/1/6 232/1/6 246/1/6
f 232/5/6 233/5/6 247/5/6
f 246/1/6 232/1/6 247/1/6
f 233/5/6 234/5/6 247/5/6
f 234/1/6 235/1/6 248/1/6
f 247/5/6 234/5/6 248/5/6
f 235/1/6 236/1/6 248/1/6
f 236/5/6 237/5/6 249/5/6
f 248/1/6 236/1/6 249/1/6
f 237/5/6 238/5/6 249/5/6
f 239/1/6 240/1/6 250/1/6
f 249/5/6 238/5/6 250/5/6
f 238/1/6 239/1/6 250/1/6
f 241/5/6 242/5/6 251/5/6
f 250/1/6 240/1/6 251/1/6
f 240/5/6 241/5/6 251/5/6
f 242/1/6 243/1/6 252/1/6
f 251/5/6 242/5/6 252/5/6
f 243/6/6 244/6/6 253/6/6
f 252/1/6 243/1/6 253/1/6
f 253/6/6 244/6/6 254/6/6
f 255/5/6 256/5/6 266/5/6
f 256/1/6 257/1/6 266/1/6
f 266/1/6 257/1/6 267/1/6
f 257/5/6 258/5/6 268/5/6
f 267/1/6 257/1/6 268/1/6
f 268/5/6 258/5/6 269/5/6
f 258/1/6 259/1/6 270/1/6
f 269/5/6 258/5/6 270/5/6
f 270/1/6 259/1/6 271/1/6
f 259/5/6 260/5/6 272/5/6
f 271/1/6 259/1/6 272/1/6
f 272/5/6 260/5/6 273/5/6
f 260/1/6 261/1/6 274/1/6
f 273/5/6 260/5/6 274/5/6
f 274/1/6 261/1/6 275/1/6
f 261/5/6 262/5/6 276/5/6
f 275/1/6 261/1/6 276/1/6
f 276/5/6 262/5/6 277/5/6
f 262/1/6 263/1/6 278/1/6
f 277/5/6 262/5/6 278/5/6
f 278/1/6 263/1/6 279/1/6
f 266/5/6 267/5/6 280/5/6
f 255/5/6 266/5/6 280/5/6
f 268/1/6 269/1/6 281/1/6
f 280/5/6 267/5/6 281/5/6
f 267/1/6 268/1/6 281/1/6
f 270/5/6 271/5/6 282/5/6
f 281/1/6 269/1/6 282/1/6
f 269/5/6 270/5/6 282/5/6
f 272/1/6 273/1/6 283/1/6
f 282/5/6 271/5/6 283/5/6
f 271/1/6 272/1/6 283/1/6
f 274/5/6 275/5/6 284/5/6
f 283/1/6 273/1/6 284/1/6
f 273/5/6 274/5/6 284/5/6
f 276/1/6 277/1/6 285/1/6
f 284/5/6 275/5/6 285/5/6
f 275/1/6 276/1/6 285/1/6
f 278/5/6 279/5/6 286/5/6
f 285/1/6 277/1/6 286/1/6
f 277/5/6 278/5/6 286/5/6
f 286/5/6 279/5/6 287/5/6
f 264/6/6 265/6/6 288/6/6
f 288/6/6 265/6/6 289/6/6
