# MagicaVoxel @ ephtracy

# material
mtllib Junction Blocks.mtl
usemtl palette

# normals
vn -1 0 0
vn 1 0 0
vn 0 0 1
vn 0 0 -1
vn 0 -1 0
vn 0 1 0

# texcoords
vt 0.482422 0.5
vt 0.974609 0.5
vt 0.986328 0.5
vt 0.990234 0.5

# verts
v -5 0 5
v -5 0 4
v -5 0 -4
v -5 0 -5
v -5 9 1
v -5 9 -1
v -5 10 5
v -5 10 4
v -5 10 1
v -5 10 -1
v -5 10 -4
v -5 10 -5
v 5 0 5
v 5 0 4
v 5 0 3
v 5 0 2
v 5 0 -2
v 5 0 -3
v 5 0 -4
v 5 0 -5
v 5 9 2
v 5 9 1
v 5 9 -1
v 5 9 -2
v 5 10 5
v 5 10 4
v 5 10 3
v 5 10 1
v 5 10 -1
v 5 10 -3
v 5 10 -4
v 5 10 -5
v -5 0 5
v -5 10 5
v -4 0 5
v -4 10 5
v -3 0 5
v -3 10 5
v -2 0 5
v -2 9 5
v -1 9 5
v -1 10 5
v 1 9 5
v 1 10 5
v 2 0 5
v 2 9 5
v 3 0 5
v 3 10 5
v 4 0 5
v 4 10 5
v 5 0 5
v 5 10 5
v -5 0 -5
v -5 10 -5
v -4 0 -5
v -4 10 -5
v -1 9 -5
v -1 10 -5
v 1 9 -5
v 1 10 -5
v 4 0 -5
v 4 10 -5
v 5 0 -5
v 5 10 -5
v -5 0 5
v -4 0 5
v -3 0 5
v -2 0 5
v 2 0 5
v 3 0 5
v 4 0 5
v 5 0 5
v -5 0 4
v -4 0 4
v -3 0 4
v -2 0 4
v 2 0 4
v 3 0 4
v 4 0 4
v 5 0 4
v 4 0 3
v 5 0 3
v 4 0 2
v 5 0 2
v 4 0 -2
v 5 0 -2
v 4 0 -3
v 5 0 -3
v -5 0 -4
v -4 0 -4
v 4 0 -4
v 5 0 -4
v -5 0 -5
v -4 0 -5
v 4 0 -5
v 5 0 -5
v -5 10 5
v -4 10 5
v -3 10 5
v -1 10 5
v 1 10 5
v 3 10 5
v 4 10 5
v 5 10 5
v -5 10 4
v -4 10 4
v -3 10 4
v -2 10 4
v -1 10 4
v 1 10 4
v 2 10 4
v 3 10 4
v 4 10 4
v 5 10 4
v -3 10 3
v -2 10 3
v -1 10 3
v 1 10 3
v 2 10 3
v 3 10 3
v 4 10 3
v 5 10 3
v -4 10 2
v -3 10 2
v -2 10 2
v 2 10 2
v 3 10 2
v 4 10 2
v -5 10 1
v -4 10 1
v -3 10 1
v 3 10 1
v 4 10 1
v 5 10 1
v -5 10 -1
v -4 10 -1
v -3 10 -1
v 3 10 -1
v 4 10 -1
v 5 10 -1
v -4 10 -2
v -3 10 -2
v -2 10 -2
v 2 10 -2
v 3 10 -2
v 4 10 -2
v -3 10 -3
v -2 10 -3
v -1 10 -3
v 1 10 -3
v 2 10 -3
v 3 10 -3
v 4 10 -3
v 5 10 -3
v -5 10 -4
v -4 10 -4
v -2 10 -4
v -1 10 -4
v 1 10 -4
v 2 10 -4
v 4 10 -4
v 5 10 -4
v -5 10 -5
v -4 10 -5
v -1 10 -5
v 1 10 -5
v 4 10 -5
v 5 10 -5

# faces
f 5/2/1 3/2/1 2/2/1
f 6/2/1 3/2/1 5/2/1
f 7/4/1 2/4/1 1/4/1
f 8/2/1 5/2/1 2/2/1
f 8/4/1 2/4/1 7/4/1
f 9/4/1 6/4/1 5/4/1
f 9/2/1 5/2/1 8/2/1
f 10/2/1 3/2/1 6/2/1
f 10/4/1 6/4/1 9/4/1
f 11/4/1 4/4/1 3/4/1
f 11/2/1 3/2/1 10/2/1
f 12/4/1 4/4/1 11/4/1
f 15/3/2 16/3/2 21/3/2
f 16/1/2 17/1/2 21/1/2
f 21/1/2 17/1/2 22/1/2
f 22/1/2 17/1/2 23/1/2
f 17/3/2 18/3/2 24/3/2
f 23/1/2 17/1/2 24/1/2
f 13/4/2 14/4/2 25/4/2
f 14/2/2 15/2/2 26/2/2
f 25/4/2 14/4/2 26/4/2
f 15/3/2 21/3/2 27/3/2
f 26/2/2 15/2/2 27/2/2
f 21/3/2 22/3/2 27/3/2
f 22/4/2 23/4/2 28/4/2
f 27/3/2 22/3/2 28/3/2
f 23/3/2 24/3/2 29/3/2
f 28/4/2 23/4/2 29/4/2
f 24/3/2 18/3/2 30/3/2
f 29/3/2 24/3/2 30/3/2
f 18/2/2 19/2/2 30/2/2
f 19/4/2 20/4/2 31/4/2
f 30/2/2 19/2/2 31/2/2
f 31/4/2 20/4/2 32/4/2
f 35/4/3 34/4/3 33/4/3
f 36/4/3 34/4/3 35/4/3
f 37/2/3 36/2/3 35/2/3
f 38/2/3 36/2/3 37/2/3
f 39/3/3 38/3/3 37/3/3
f 40/3/3 38/3/3 39/3/3
f 41/1/3 40/1/3 39/1/3
f 41/3/3 38/3/3 40/3/3
f 42/3/3 38/3/3 41/3/3
f 43/1/3 41/1/3 39/1/3
f 43/4/3 42/4/3 41/4/3
f 44/4/3 42/4/3 43/4/3
f 45/1/3 43/1/3 39/1/3
f 46/3/3 44/3/3 43/3/3
f 46/1/3 43/1/3 45/1/3
f 47/3/3 46/3/3 45/3/3
f 48/3/3 44/3/3 46/3/3
f 48/3/3 46/3/3 47/3/3
f 49/2/3 48/2/3 47/2/3
f 50/2/3 48/2/3 49/2/3
f 51/4/3 50/4/3 49/4/3
f 52/4/3 50/4/3 51/4/3
f 53/4/4 54/4/4 55/4/4
f 55/4/4 54/4/4 56/4/4
f 55/2/4 56/2/4 57/2/4
f 57/2/4 56/2/4 58/2/4
f 55/2/4 57/2/4 59/2/4
f 57/4/4 58/4/4 59/4/4
f 59/4/4 58/4/4 60/4/4
f 55/2/4 59/2/4 61/2/4
f 59/2/4 60/2/4 61/2/4
f 61/2/4 60/2/4 62/2/4
f 61/4/4 62/4/4 63/4/4
f 63/4/4 62/4/4 64/4/4
f 73/4/5 66/4/5 65/4/5
f 74/2/5 67/2/5 66/2/5
f 74/4/5 66/4/5 73/4/5
f 75/3/5 68/3/5 67/3/5
f 75/2/5 67/2/5 74/2/5
f 76/1/5 69/1/5 68/1/5
f 76/3/5 68/3/5 75/3/5
f 77/3/5 70/3/5 69/3/5
f 77/1/5 69/1/5 76/1/5
f 78/2/5 71/2/5 70/2/5
f 78/3/5 70/3/5 77/3/5
f 79/4/5 72/4/5 71/4/5
f 79/2/5 71/2/5 78/2/5
f 80/4/5 72/4/5 79/4/5
f 81/2/5 78/2/5 77/2/5
f 81/2/5 74/2/5 73/2/5
f 81/2/5 80/2/5 79/2/5
f 81/2/5 79/2/5 78/2/5
f 81/2/5 77/2/5 76/2/5
f 81/2/5 76/2/5 75/2/5
f 81/2/5 75/2/5 74/2/5
f 82/2/5 80/2/5 81/2/5
f 83/2/5 81/2/5 73/2/5
f 83/3/5 82/3/5 81/3/5
f 84/3/5 82/3/5 83/3/5
f 85/2/5 83/2/5 73/2/5
f 85/1/5 84/1/5 83/1/5
f 86/1/5 84/1/5 85/1/5
f 87/2/5 85/2/5 73/2/5
f 87/3/5 86/3/5 85/3/5
f 88/3/5 86/3/5 87/3/5
f 89/2/5 87/2/5 73/2/5
f 89/2/5 88/2/5 87/2/5
f 90/2/5 88/2/5 89/2/5
f 91/2/5 88/2/5 90/2/5
f 92/2/5 88/2/5 91/2/5
f 93/4/5 90/4/5 89/4/5
f 94/2/5 91/2/5 90/2/5
f 94/4/5 90/4/5 93/4/5
f 95/4/5 92/4/5 91/4/5
f 95/2/5 91/2/5 94/2/5
f 96/4/5 92/4/5 95/4/5
f 97/4/6 98/4/6 105/4/6
f 98/2/6 99/2/6 106/2/6
f 105/4/6 98/4/6 106/4/6
f 99/3/6 100/3/6 107/3/6
f 106/2/6 99/2/6 107/2/6
f 107/3/6 100/3/6 108/3/6
f 100/4/6 101/4/6 109/4/6
f 108/3/6 100/3/6 109/3/6
f 101/3/6 102/3/6 110/3/6
f 109/4/6 101/4/6 110/4/6
f 110/3/6 102/3/6 111/3/6
f 102/2/6 103/2/6 112/2/6
f 111/3/6 102/3/6 112/3/6
f 103/4/6 104/4/6 113/4/6
f 112/2/6 103/2/6 113/2/6
f 113/4/6 104/4/6 114/4/6
f 105/2/6 106/2/6 115/2/6
f 107/2/6 108/2/6 115/2/6
f 106/2/6 107/2/6 115/2/6
f 108/4/6 109/4/6 116/4/6
f 115/2/6 108/2/6 116/2/6
f 109/2/6 110/2/6 117/2/6
f 116/4/6 109/4/6 117/4/6
f 110/4/6 111/4/6 118/4/6
f 117/2/6 110/2/6 118/2/6
f 111/2/6 112/2/6 119/2/6
f 118/4/6 111/4/6 119/4/6
f 113/2/6 114/2/6 119/2/6
f 112/2/6 113/2/6 119/2/6
f 119/2/6 114/2/6 120/2/6
f 120/2/6 114/2/6 121/2/6
f 121/2/6 114/2/6 122/2/6
f 105/2/6 115/2/6 123/2/6
f 115/4/6 116/4/6 124/4/6
f 123/2/6 115/2/6 124/2/6
f 117/2/6 118/2/6 125/2/6
f 124/4/6 116/4/6 125/4/6
f 116/2/6 117/2/6 125/2/6
f 118/2/6 119/2/6 125/2/6
f 119/4/6 120/4/6 126/4/6
f 125/2/6 119/2/6 126/2/6
f 120/2/6 121/2/6 127/2/6
f 126/4/6 120/4/6 127/4/6
f 121/3/6 122/3/6 128/3/6
f 127/2/6 121/2/6 128/2/6
f 105/2/6 123/2/6 129/2/6
f 123/4/6 124/4/6 130/4/6
f 129/2/6 123/2/6 130/2/6
f 126/2/6 127/2/6 131/2/6
f 130/4/6 124/4/6 131/4/6
f 125/2/6 126/2/6 131/2/6
f 124/2/6 125/2/6 131/2/6
f 127/4/6 128/4/6 132/4/6
f 131/2/6 127/2/6 132/2/6
f 128/3/6 122/3/6 133/3/6
f 132/4/6 128/4/6 133/4/6
f 133/3/6 122/3/6 134/3/6
f 129/4/6 130/4/6 135/4/6
f 131/2/6 132/2/6 136/2/6
f 135/4/6 130/4/6 136/4/6
f 130/2/6 131/2/6 136/2/6
f 132/2/6 133/2/6 136/2/6
f 136/2/6 133/2/6 137/2/6
f 137/2/6 133/2/6 138/2/6
f 133/4/6 134/4/6 139/4/6
f 138/2/6 133/2/6 139/2/6
f 139/4/6 134/4/6 140/4/6
f 135/2/6 136/2/6 141/2/6
f 136/4/6 137/4/6 141/4/6
f 137/2/6 138/2/6 142/2/6
f 141/4/6 137/4/6 142/4/6
f 142/2/6 138/2/6 143/2/6
f 143/2/6 138/2/6 144/2/6
f 138/4/6 139/4/6 145/4/6
f 144/2/6 138/2/6 145/2/6
f 139/3/6 140/3/6 146/3/6
f 145/4/6 139/4/6 146/4/6
f 141/2/6 142/2/6 147/2/6
f 142/4/6 143/4/6 147/4/6
f 143/2/6 144/2/6 148/2/6
f 147/4/6 143/4/6 148/4/6
f 148/2/6 144/2/6 149/2/6
f 149/2/6 144/2/6 150/2/6
f 144/4/6 145/4/6 151/4/6
f 150/2/6 144/2/6 151/2/6
f 145/2/6 146/2/6 152/2/6
f 151/4/6 145/4/6 152/4/6
f 146/3/6 140/3/6 153/3/6
f 152/2/6 146/2/6 153/2/6
f 153/3/6 140/3/6 154/3/6
f 135/2/6 141/2/6 155/2/6
f 141/2/6 147/2/6 155/2/6
f 147/2/6 148/2/6 155/2/6
f 155/2/6 148/2/6 156/2/6
f 148/4/6 149/4/6 157/4/6
f 156/2/6 148/2/6 157/2/6
f 149/2/6 150/2/6 158/2/6
f 157/4/6 149/4/6 158/4/6
f 150/4/6 151/4/6 159/4/6
f 158/2/6 150/2/6 159/2/6
f 153/2/6 154/2/6 160/2/6
f 159/4/6 151/4/6 160/4/6
f 151/2/6 152/2/6 160/2/6
f 152/2/6 153/2/6 160/2/6
f 160/2/6 154/2/6 161/2/6
f 161/2/6 154/2/6 162/2/6
f 155/4/6 156/4/6 163/4/6
f 156/2/6 157/2/6 164/2/6
f 163/4/6 156/4/6 164/4/6
f 157/2/6 158/2/6 164/2/6
f 158/4/6 159/4/6 165/4/6
f 164/2/6 158/2/6 165/2/6
f 159/2/6 160/2/6 166/2/6
f 165/4/6 159/4/6 166/4/6
f 160/2/6 161/2/6 166/2/6
f 161/4/6 162/4/6 167/4/6
f 166/2/6 161/2/6 167/2/6
f 167/4/6 162/4/6 168/4/6
